<?xml version="1.0" encoding="UTF-8"?>
<svg id="Capa_2" data-name="Capa 2" xmlns="http://www.w3.org/2000/svg" xmlns:xlink="http://www.w3.org/1999/xlink" viewBox="0 0 11.87 11.87">
  <defs>
    <style>
      .cls-1 {
        fill: #603813;
      }

      .cls-2 {
        fill: url(#Degradado_sin_nombre_25);
      }
    </style>
    <linearGradient id="Degradado_sin_nombre_25" data-name="Degradado sin nombre 25" x1="0" y1="5.94" x2="11.87" y2="5.94" gradientUnits="userSpaceOnUse">
      <stop offset="0" stop-color="#ff7300"/>
      <stop offset=".14" stop-color="#f97c00"/>
      <stop offset=".36" stop-color="#ea9502"/>
      <stop offset=".43" stop-color="#e59e03"/>
      <stop offset=".69" stop-color="#e5c500"/>
      <stop offset=".99" stop-color="#bf6f00"/>
    </linearGradient>
  </defs>
  <g id="Capa_1-2" data-name="Capa 1">
    <rect class="cls-2" x="0" width="11.87" height="11.87" rx="2.83" ry="2.83"/>
    <path class="cls-1" d="M5.16,1.85c-.16,.21-.28,.43-.38,.67-.19,.46-.31,.73-.37,.84l-.02,.03s-.02-.06-.03-.08c-.08-.27-.15-.46-.21-.57-.05-.11-.14-.21-.25-.31-.28-.25-.59-.37-.94-.37-.33,0-.6,.09-.81,.27s-.32,.41-.32,.68c0,.51,.38,.86,1.15,1.04l.77,.19c1.1,.26,1.65,.84,1.65,1.74,0,.5-.19,.92-.56,1.26-.38,.34-.84,.51-1.39,.51-.35,0-.73-.05-1.16-.16l-.53-.13c-.22-.05-.39-.08-.53-.08-.19,0-.38,.06-.57,.18l-.04-.06c.38-.57,.64-1.11,.79-1.62l.08,.02c.06,.48,.26,.85,.57,1.11s.74,.4,1.25,.4c.41,0,.73-.09,.97-.28,.24-.19,.36-.44,.36-.76,0-.37-.17-.67-.5-.91-.24-.17-.73-.33-1.48-.47-.57-.11-.99-.3-1.25-.56s-.39-.62-.39-1.09,.17-.87,.52-1.17c.34-.3,.79-.45,1.35-.45,.36,0,.77,.06,1.24,.19,.22,.06,.39,.09,.49,.09,.15,0,.31-.05,.49-.15l.05,.02Zm0,2.91c.41,.31,.62,.74,.62,1.28,0,.58-.23,1.07-.67,1.47-.45,.4-1,.6-1.64,.6-.33,0-.62-.03-.89-.1l-.73-.18c-.17-.04-.35-.06-.55-.06-.17,0-.33,.04-.48,.1l-.05-.13c.16-.07,.32-.11,.48-.11,.18,0,.39,.03,.62,.08l.7,.17c.28,.07,.57,.1,.88,.1,.61,0,1.12-.19,1.55-.58,.43-.39,.64-.86,.64-1.41,0-.46-.16-.87-.49-1.22v-.03Zm-3.81-.16l.16,.09c.1,.18,.39,.33,.88,.45l.73,.18c.5,.12,.83,.23,1,.32,.17,.09,.28,.23,.35,.41l-.03,.02c-.14-.16-.28-.27-.44-.35s-.47-.16-.92-.27c-.66-.15-1.1-.28-1.32-.39-.23-.11-.36-.26-.4-.45Zm.57,1.48c.11,.55,.41,.93,.9,1.16v.04c-.56-.16-.91-.56-1.02-1.18l.12-.02Zm2.2-3.12c-.33-.36-.69-.53-1.08-.53-.23,0-.42,.07-.57,.2-.15,.13-.23,.3-.23,.51,0,.22,.15,.46,.46,.69l.04,.02-.02,.04c-.4-.18-.6-.44-.6-.78,0-.24,.08-.43,.25-.58,.17-.15,.39-.22,.67-.22s.49,.06,.69,.17,.34,.27,.43,.47l-.03,.02Zm1.33-.91l-.04,.07c-.12,.21-.23,.41-.32,.6-.21,.45-.33,.7-.36,.75l-.02,.03-.11-.05,.02-.04c.09-.2,.22-.46,.38-.78l.31-.6,.02-.04,.12,.06Z"/>
    <path class="cls-1" d="M11.1,4.43c-.03,.05-.05,.09-.06,.11l-.31,.55c-.11,.2-.21,.44-.3,.74v.02s-.06-.03-.06-.03v-.06c-.1-.35-.23-.59-.39-.73s-.42-.2-.75-.2c-.14,0-.28,0-.41,.02h-.06v4.99l.54,.5h-2.1l.64-.54V5.22h-.33c-.32,0-.54,.06-.67,.18-.13,.12-.21,.34-.24,.66h-.12c.03-.36,.13-.61,.28-.75s.4-.21,.75-.21h.28s.05,0,.05,0v-.23c-.16-.02-.31-.03-.45-.03-.4,0-.68,.08-.86,.24-.18,.16-.27,.43-.29,.82h-.06c-.13-.43-.34-.9-.61-1.43l-.03-.05h5.54Zm-.94,1.01c-.24-.15-.51-.23-.83-.23-.07,0-.14,0-.22,.01l.02,4.63,.73,.87h-2.35l-.11-.12h2.21l-.62-.7V5.09h.25c.3,0,.51,.02,.63,.07,.12,.05,.22,.14,.29,.28Zm1.23-.72c-.21,.27-.43,.72-.67,1.34l-.02,.05-.1-.09v-.04c.24-.64,.46-1.08,.67-1.33l.02-.03,.09,.09Z"/>
  </g>
</svg>