<svg xmlns="http://www.w3.org/2000/svg" viewBox="0 0 2119.9 2907.09" width="48" height="48" fill="#969696">
  <path d="M1261.4,1955.4c24.6,121,15.1,209.9,7.6,296.9-9.5,109.7-20.8,219.4,22.7,385.8l117.2-30.3c-37.8-147.5-28.4-245.8-18.9-344.2,9.5-96.4,17-192.9-9.5-330.9l-119.1,22.7Z"/>
  <path class="cls-1" d="M418,1471.69c24.6,121,15.1,209.9,7.6,296.9-9.5,109.7-20.8,219.4,22.7,385.8l117.2-30.3c-37.8-147.5-28.4-245.8-18.9-344.2,9.5-96.4,17-192.9-9.5-330.9l-119.1,22.7Z"/>
  <path class="cls-1" d="M1662.3,845.69c-11.3,166.4-85.1,336.6-189.1,463.3-105.9,128.6-244,217.5-380.1,217.5s-287.4-90.8-402.8-225c-109.7-128.6-189.1-298.8-198.6-467.1l53-11.3-17-30.3,3.8-1.9c34-18.9,41.6-22.7,47.3-73.8,1.9-11.3,3.8-26.5,3.8-43.5,1.9-18.9,1.9-32.1,3.8-45.4,1.9-17,7.6-30.3,17-41.6h0c11.3-13.2,24.6-20.8,41.6-22.7,11.3-1.9,24.6-1.9,35.9,1.9,15.1,5.7,28.4,15.1,39.7,30.3,5.7,7.6,18.9,13.2,37.8,17,32.1,7.6,71.9,5.7,111.6,0,20.8-3.8,53-18.9,87-37.8,111.6-56.7,251.5-128.6,412.3-17,35.9,26.5,71.9,53,104,81.3,34,30.3,66.2,60.5,96.4,90.8,3.8,3.8,9.5,9.5,15.1,17,13.2,15.1,30.3,34,35.9,35.9l45.4,13.2-3.8,47.3v1.9Zm-281.8,387.7c81.3-100.2,141.8-230.7,158.9-359.3-17-13.2-32.1-30.3-45.4-45.4-3.8-3.8-7.6-7.6-11.3-13.2-26.5-28.4-56.7-56.7-87-83.2-30.3-26.5-62.4-51.1-94.6-73.8-100.2-70-206.1-17-289.3,26.5-45.4,22.7-85.1,43.5-124.8,49.2-53,7.6-105.9,7.6-153.2-1.9-11.3-1.9-20.8-5.7-32.1-9.5,0,3.8,0,7.6-1.9,11.3-13.2,96.4-26.5,115.4-81.3,147.5,18.9,122.9,81.3,245.8,164.5,342.3,92.7,107.8,208,181.5,310.1,181.5,98.3,.1,204.2-69.9,287.4-172Z"/>
  <path class="cls-1" d="M544.7,1524.69l527.6,680.8,465.2-692.1c11.3-1.9,22.7-3.8,30.3-3.8,47.3-7.6,64.3-9.5,117.2,35.9,100.2,87,179.7,192.9,234.5,313.9,53,115.4,83.2,245.8,83.2,382v209.9c-126.7,102.1-272.3,185.3-427.4,242.1-158.9,58.6-330.9,88.9-512.5,88.9h0c-179.7,0-351.7-32.1-512.5-90.8-157-56.7-300.7-139.9-429.3-242.1v-209.9h0c0-119.1,22.7-234.5,64.3-340.4,43.5-109.7,105.9-208,185.3-293.1l7.6-7.6c45.4-47.3,66.2-71.9,83.2-77.5,13.2-5.7,35.9-3.8,79.4,0l3.9,3.8Zm520,444.4l-425.5-525.8-15.1-32.1-35.9-3.8c-3.8,0-7.6,0-18.9-1.9h0c-71.9-5.7-109.7-9.5-151.3,7.6-41.6,17-70,47.3-126.7,107.8l-7.6,7.6c-88.9,94.6-160.7,208-209.9,330.9C26.5,1978.49,0,2107.09,0,2243.29H0v266.7l20.8,18.9c143.7,119.1,306.4,215.6,486,281.8,172.1,62.4,359.3,96.4,552.2,96.4h0c192.9,0,380.1-34,552.2-96.4,179.7-64.3,344.2-160.7,486-281.8l22.7-18.9v-266.7c0-153.2-34-300.7-94.6-433.1-62.4-136.2-153.2-259.1-266.6-355.5-94.6-83.2-126.7-77.5-213.7-64.3-18.9,3.8-39.7,5.7-62.4,7.6l-35.9,3.8-13.2,34-374.4,531.4,5.6,1.9Z"/>
  <path class="cls-1" d="M1588.6,2521.29c34-1.9,58.6-32.1,54.8-64.3-1.9-34-32.1-58.6-64.3-54.8-32.1,1.9-47.3-7.6-53-22.7-11.3-26.5-9.5-70-5.7-104,0-3.8,1.9-5.7,7.6-22.7,22.7-79.4,79.4-274.2,81.3-376.3,0-17,11.3-26.5,26.5-32.1,9.5-3.8,18.9-5.7,30.3-5.7s20.8,1.9,30.3,5.7c15.1,5.7,28.4,17,28.4,32.1,3.8,100.2,58.6,295,81.3,374.4,3.8,17,7.6,18.9,7.6,22.7,1.9,34,3.8,75.6-5.7,104-5.7,15.1-20.8,24.6-53,22.7-34-1.9-62.4,22.7-64.3,54.8-1.9,34,22.7,62.4,54.8,64.3,100.2,7.6,151.3-35.9,175.9-100.2,20.8-51.1,17-109.7,13.2-157,0-7.6-5.7-22.7-11.3-47.3-20.8-75.6-73.8-261-77.5-346.1-1.9-71.9-49.2-121-109.7-141.8-22.7-7.6-47.3-11.3-71.9-11.3s-49.2,3.8-71.9,11.3c-58.6,20.8-104,68.1-105.9,141.8-1.9,85.1-54.8,270.4-77.5,346.1-7.6,22.7-11.3,37.8-11.3,45.4-3.8,47.3-5.7,105.9,13.2,157,24.6,62.4,75.6,107.8,175.9,100.2l1.9,3.8Z"/>
  <path class="cls-1" d="M1581,1452.79c0,9.5,24.6,327.2,24.6,327.2l121-9.5s-24.6-312-24.6-317.7h-121Z"/>
  <path class="cls-1" d="M522,2178.99c7.6,0,15.1,3.8,20.8,9.5,5.7,5.7,9.5,13.2,9.5,20.8s-3.8,15.1-9.5,20.8-13.2,9.5-20.8,9.5-15.1-3.8-20.8-9.5c-5.7-5.7-9.5-13.2-9.5-20.8s3.8-15.1,9.5-20.8c5.6-5.7,13.2-9.5,20.8-9.5Zm107.8-77.6c-26.5-26.5-64.3-43.5-107.8-43.5s-79.4,17-107.8,43.5c-26.5,26.5-43.5,64.3-43.5,107.8s17,79.4,43.5,107.8c26.5,26.5,64.3,43.5,107.8,43.5s79.4-17,107.8-43.5c26.5-26.5,43.5-64.3,43.5-107.8s-17.1-79.4-43.5-107.8Z"/>
  <path class="cls-1" d="M1442.9,234.89c-39.7-26.5-100.2-53-170.2-75.6-96.4-30.3-208-47.3-312-34-96.4,13.2-187.2,54.8-244,143.7-18.9,28.4-34,60.5-45.4,100.2l-9.5,30.3-28.4,9.5c-143.7,49.2-157,122.9-134.3,192.9,15.1,45.4,43.5,90.8,66.2,130.5,1.9,3.8,5.7,9.5,7.6,13.2,1.9-7.6,3.8-17,5.7-30.3,1.9-11.3,3.8-26.5,3.8-43.5,1.9-18.9,1.9-32.1,3.8-45.4,1.9-17,7.6-32.1,17-41.6,11.3-13.2,24.6-20.8,41.6-22.7,11.3-1.9,24.6-1.9,35.9,1.9,15.1,5.7,30.3,15.1,39.7,30.3,5.7,7.6,18.9,13.2,37.8,17,32.1,7.6,71.9,5.7,111.6,0,20.8-3.8,53-18.9,87-37.8,111.6-56.7,251.5-128.6,412.3-17,35.9,26.5,71.9,53,104,81.3,34,30.3,66.2,60.5,96.4,90.8,1.9,1.9,5.7,5.7,9.5,11.3,58.6-155.1,121-340.4-136.2-506.8v1.8h.1Zm-134.2-191c81.3,24.6,151.3,58.6,200.5,88.9,344.2,223.2,255.3,461.4,179.7,660-9.5,22.7-17,45.4-24.6,68.1l-17,49.2-51.1-9.5c-43.5-7.6-77.5-45.4-102.1-73.8-3.8-3.8-7.6-7.6-11.3-13.2-26.5-28.4-56.7-56.7-87-83.2-30.3-26.5-62.4-51.1-94.6-73.8-100.2-70-206.1-17-289.3,24.6-45.4,22.7-85.1,43.5-124.8,49.2-53,7.6-105.9,7.6-153.2-1.9-11.3-1.9-20.8-5.7-32.1-9.5,0,3.8,0,7.6-1.9,11.3-15.1,111.6-30.3,119.1-109.7,162.6l-3.8,1.9-70,37.8-18.9-77.5c-1.9-9.5-17-34-34-62.4-26.5-43.5-58.6-96.4-77.5-153.2-41.6-122.9-28.4-253.4,181.5-334.7,13.2-37.8,30.3-70,49.2-100.2C696.1,81.69,817.2,23.09,945.8,5.99c122.7-16.9,253.2,3.9,362.9,37.9Z"/>
</svg>